<?xml version="1.0" standalone="no"?>
<!DOCTYPE svg PUBLIC "-//W3C//DTD SVG 20010904//EN"
 "http://www.w3.org/TR/2001/REC-SVG-20010904/DTD/svg10.dtd">
<svg version="1.0" xmlns="http://www.w3.org/2000/svg"
 width="700.000000pt" height="700.000000pt" viewBox="0 0 700.000000 700.000000"
 preserveAspectRatio="xMidYMid meet">
<metadata>
Created by potrace 1.14, written by Peter Selinger 2001-2017
</metadata>
<g transform="translate(0.000000,700.000000) scale(0.100000,-0.100000)"
fill="#000000" stroke="none">
<path d="M1330 5632 l-75 -3 -84 -292 c-47 -161 -93 -319 -104 -352 -10 -33
-21 -70 -23 -83 -3 -13 -11 -42 -19 -65 -7 -23 -104 -352 -215 -732 -111 -379
-212 -726 -225 -770 -27 -91 -111 -378 -156 -535 -17 -58 -34 -116 -39 -130
-5 -14 -23 -74 -40 -135 -18 -60 -43 -146 -56 -190 -13 -44 -57 -197 -99 -340
-41 -143 -84 -289 -95 -325 -11 -36 -26 -87 -34 -115 -8 -27 -26 -88 -40 -135
-14 -46 -24 -86 -22 -87 7 -7 921 -2 927 4 4 5 30 87 58 183 27 96 51 182 54
190 15 45 184 620 206 700 10 36 46 160 81 275 34 116 66 224 70 240 4 17 25
86 45 155 20 69 39 132 41 140 2 8 17 60 33 115 16 55 57 195 91 310 34 116
71 239 81 275 11 36 21 72 23 80 2 8 50 170 105 360 56 190 120 406 141 480
22 74 82 279 134 455 52 176 93 322 91 323 -4 5 -756 8 -855 4z"/>
<path d="M2513 5632 l-63 -3 0 -2144 0 -2145 468 0 467 0 0 2145 0 2145 -35 1
c-139 2 -787 3 -837 1z"/>
<path d="M4919 5632 c-24 -3 -28 -11 -54 -100 -15 -53 -36 -124 -46 -157 -10
-33 -29 -98 -43 -145 -14 -47 -52 -179 -86 -295 -73 -248 -90 -305 -94 -325
-2 -8 -33 -114 -69 -235 -36 -121 -108 -368 -161 -550 -53 -181 -109 -373
-125 -425 -31 -104 -123 -417 -176 -600 -18 -63 -71 -245 -118 -405 -47 -159
-102 -346 -122 -415 -21 -69 -41 -138 -45 -155 -9 -34 -65 -225 -79 -270 -38
-119 -62 -207 -58 -211 5 -6 919 -6 925 0 2 3 26 81 53 173 27 92 58 197 69
233 42 140 132 446 135 460 2 8 17 62 35 120 18 58 35 119 40 135 4 17 23 84
43 150 41 138 180 614 203 695 9 30 25 82 35 115 19 62 147 498 154 525 4 16
31 110 93 320 22 74 42 144 45 155 5 21 89 304 134 455 14 47 31 105 38 130
136 467 176 604 181 612 3 5 -1 8 -8 8 -72 3 -879 4 -899 2z"/>
<path d="M6087 5632 c-15 -3 -17 -19 -17 -120 -1 -164 -1 -4033 0 -4109 l0
-63 465 0 465 0 -2 2146 -3 2147 -446 1 c-245 0 -453 0 -462 -2z"/>
</g>
</svg>
